<?xml version="1.0" standalone="no"?>
<!DOCTYPE svg PUBLIC "-//W3C//DTD SVG 20010904//EN"
 "http://www.w3.org/TR/2001/REC-SVG-20010904/DTD/svg10.dtd">
<svg version="1.0" xmlns="http://www.w3.org/2000/svg"
 width="600.000000pt" height="600.000000pt" viewBox="0 0 600.000000 600.000000"
 preserveAspectRatio="xMidYMid meet">
<metadata>
Created by potrace 1.11, written by Peter Selinger 2001-2013
</metadata>
<g transform="translate(0.000000,600.000000) scale(0.100000,-0.100000)"
fill="#000000" stroke="none">
<path d="M0 3000 l0 -3000 3000 0 3000 0 0 3000 0 3000 -3000 0 -3000 0 0
-3000z m4278 2124 c175 -87 215 -322 77 -459 -135 -136 -365 -101 -452 69 -23
43 -27 64 -27 131 0 93 15 134 71 195 81 91 222 118 331 64z m-1599 -959 c301
-67 477 -215 552 -465 22 -74 23 -85 29 -875 4 -440 11 -810 15 -823 9 -27
-11 -79 -36 -92 -10 -6 -77 -10 -149 -10 -185 0 -182 -2 -255 172 l-41 98 -45
-46 c-141 -145 -330 -236 -549 -264 -432 -56 -759 213 -760 626 0 165 59 314
164 412 76 70 135 103 251 138 86 27 99 28 305 28 223 1 325 -12 528 -63 l72
-19 0 248 c0 136 -4 271 -10 299 -22 117 -78 183 -185 223 -49 18 -88 22 -212
26 -84 2 -191 -1 -240 -7 -93 -12 -282 -59 -345 -85 -87 -37 -102 -22 -143
145 -35 144 -36 171 -2 213 38 46 269 112 478 135 129 15 489 6 578 -14z
m1699 -26 l23 -20 -4 -1197 c-3 -1181 -4 -1198 -25 -1310 -92 -477 -307 -698
-740 -758 -114 -16 -125 -16 -157 -1 -47 23 -58 65 -54 210 5 148 15 165 115
188 195 44 290 145 340 359 16 69 18 177 23 1282 l6 1207 23 23 c25 26 90 33
313 36 104 2 117 0 137 -19z"/>
<path d="M2147 2749 c-138 -33 -219 -144 -204 -284 19 -183 204 -288 427 -241
157 33 297 129 360 248 29 54 34 73 34 132 l1 70 -60 18 c-135 41 -300 68
-411 67 -60 -1 -126 -5 -147 -10z"/>
</g>
</svg>
