<svg version="1.1" id="iPhone" class="iphone-skills" xmlns="http://www.w3.org/2000/svg" xmlns:xlink="http://www.w3.org/1999/xlink" x="0px" y="0px"
	 viewBox="0 0 25 50" enable-background="new 0 0 25 50" xml:space="preserve">
	<rect x="2.083" y="8.333" fill-rule="evenodd" clip-rule="evenodd" fill="#80972E" class="screen" width="20.773" height="33.333"/>
	<path fill-rule="evenodd" clip-rule="evenodd" fill="#E1EDAE" d="M22.917,41.667V8.333H2.083v33.333H22.917z M12.5,47.917
		c1.389,0,2.083-0.694,2.083-2.083c0-1.389-0.694-2.083-2.083-2.083s-2.083,0.694-2.083,2.083
		C10.417,47.222,11.111,47.917,12.5,47.917z M8.854,4.167c-0.347,0-0.521,0.174-0.521,0.521s0.174,0.521,0.521,0.521
		c0.347,0,0.521-0.174,0.521-0.521S9.201,4.167,8.854,4.167z M10.417,4.688c0,0.347,0.174,0.521,0.521,0.521h3.125
		c0.347,0,0.521-0.174,0.521-0.521s-0.174-0.521-0.521-0.521h-3.125C10.59,4.167,10.417,4.34,10.417,4.688z M21.875,0
		c0.868,0,1.606,0.304,2.214,0.911S25,2.257,25,3.125v43.75c0,0.868-0.304,1.606-0.911,2.214C23.481,49.696,22.743,50,21.875,50
		H3.125c-0.868,0-1.606-0.304-2.214-0.911C0.304,48.481,0,47.743,0,46.875V3.125c0-0.868,0.304-1.606,0.911-2.214S2.257,0,3.125,0
		H21.875z"/>
</svg>