<svg version="1.1" id="sassSkills" class="sass-skills" xmlns="http://www.w3.org/2000/svg" xmlns:xlink="http://www.w3.org/1999/xlink" x="0px" y="0px"
	 viewBox="0 0 156.449 74.924" enable-background="new 0 0 156.449 74.924" xml:space="preserve">
	<g>
		<path fill-rule="evenodd" clip-rule="evenodd" fill="#CEE374" class="css3" d="M59.645,13.975l0.62,7.585h28.543l-0.62,7.895h-18.77l0.62,7.74
			h17.374l-0.776,9.907l-8.377,2.322l-8.222-2.322l-0.62-6.192h-7.446l1.086,12.074l15.202,4.334l15.357-4.334l3.413-39.009H59.645z
			 M58.559,59.796L53.905,6.081h48.709l-4.654,53.715L78.26,65.369L58.559,59.796z M48.476,1.127l5.429,62.384l24.355,6.966
			l24.355-6.966l5.429-62.384H48.476z"/>
		<g>
			<defs>
				<polyline id="SVGID_3_" points="28.804,1.127 155.754,1.127 155.754,74.107 28.804,74.107 			"/>
			</defs>
			<clipPath id="SVGID_4_">
				<use xlink:href="#SVGID_3_"  overflow="visible"/>
			</clipPath>
			<g clip-path="url(#SVGID_4_)">
				<defs>
					<rect id="SVGID_5_" x="28.804" y="1.107" width="127" height="73"/>
				</defs>
				<clipPath id="SVGID_6_">
					<use xlink:href="#SVGID_5_"  overflow="visible"/>
				</clipPath>
				<g clip-path="url(#SVGID_6_)" enable-background="new    ">
					<g>
						<defs>
							<rect id="SVGID_7_" x="28.804" y="33.107" width="127" height="41"/>
						</defs>
						<clipPath id="SVGID_8_">
							<use xlink:href="#SVGID_7_"  overflow="visible"/>
						</clipPath>
						<g clip-path="url(#SVGID_8_)">
							<defs>
								<path id="SVGID_9_" d="M155.401,43.581h-0.004c-0.959-1.91-1.83-4.079-1.83-4.079c-0.61-2.864-1.395-2.864-1.395-2.864
									c-0.872-1.215-3.835-0.521-3.835-0.521c-1.395,0.781-11.767,3.645-14.294,4.337c-2.528,0.694-19.96,5.642-19.96,5.642
									c-5.491-1.997-18.826-2.17-18.826-2.17c-14.556-0.521-22.836,2.69-22.836,2.69c-5.23,3.298-8.193,1.476-8.193,1.476
									c-2.789,0-5.056-1.823-5.056-1.823c-3.312-2.77-12.379-6.158-12.379-6.16c0.786-0.147,2.66-0.721,4.946-1.471l-0.459-5.276
									c-7.362,1.541-14.859,3.277-14.863,3.274l-0.61,0.083c-3.399-0.26-4.271,0.087-4.271,0.087
									c-3.828,0.345-2.515,5.205-2.515,5.212c2.441,10.933,8.886,18.836,8.886,18.836c6.624,7.201,14.378,6.251,14.378,6.249
									c5.491,0.179,8.367-5.208,8.367-5.208c2.005-2.343,2.527-6.881,2.527-6.881c3.573,0.84,4.098,2.368,4.098,2.367
									c1.395,1.652,3.753,5.728,3.753,5.728c7.583,12.503,21.622,10.933,21.622,10.933c11.679,0.179,17.519-11.717,17.519-11.717
									c1.482-2.256,4.707-7.725,4.707-7.725c0.087,0,7.234-3.102,7.234-3.102c5.84-1.453,18.739-7.66,18.739-7.66
									c2.702-1.562,8.629-4.774,8.629-4.774c2.527,0.262,3.491,8.33,3.657,8.936c0.174,0.606,1.476,2.947,2.266-0.347
									C156.194,44.361,155.397,43.581,155.401,43.581 M57.255,61.978c-1.831,5.38-9.587,2.69-9.587,2.69
									c-6.665-2.231-9.501-7.985-10.982-11.196c-0.048-0.104-0.094-0.207-0.139-0.311c-1.337-3.089-1.256-5.852-1.256-5.852
									c1.22-2.43,1.395-3.992,1.395-3.992c1.046,0.179,5.578-1.91,5.578-1.91c8.106,2.079,12.115,5.811,12.115,5.815
									C62.329,54.451,57.342,61.847,57.255,61.978 M76.817,61.856c-0.787-1.705-2.068-4.013-3.96-6.128
									c-0.491-0.549-0.847-0.951-1.096-1.238c-0.679-0.703-1.371-1.656-1.083-2.417c0,0,0.285-2.161,3.138-3.462
									c0,0,8.019-3.559,22.226-0.521c0.001,0.007,11.852,2.43,8.802,12.154l0.001-0.003c0,0-2.092,15.623-18.914,10.849
									c0,0-4.445,0.087-7.67-6.423C77.432,62.995,77.001,62.167,76.817,61.856"/>
							</defs>
							<clipPath id="SVGID_10_">
								<use xlink:href="#SVGID_9_"  overflow="visible"/>
							</clipPath>
							<g clip-path="url(#SVGID_10_)">
								<defs>
									<rect id="SVGID_11_" x="28.804" y="1.107" width="127" height="73"/>
								</defs>
								<clipPath id="SVGID_12_">
									<use xlink:href="#SVGID_11_"  overflow="visible"/>
								</clipPath>
								<rect x="23.804" y="28.362" clip-path="url(#SVGID_12_)" fill="#80972E" width="136.949" height="50.745"/>
							</g>
						</g>
					</g>
				</g>
			</g>
		</g>
		<g>
			<defs>
				<path id="SVGID_13_" d="M102.955,45.586c2.066,0.151,4.291,1.074,4.291,1.074c2.668,1.639,4.512,2.52,4.512,2.521
					c1.163-1.159,0.834-1.555,0.834-1.555c-0.401-1.636-9.639-2.035-9.639-2.04H102.955z M107.321,50.752
					c0,0,1.505-1.567-0.752-1.567c0,0.001-1.159,1.639,0.759,1.567H107.321z M106.568,52.796c0.069,1.294,0.828,0.95,0.828,0.954
					c0.342,0.545-0.374,1.363-0.374,1.363c1.747-0.969,0.785-2.316,0.785-2.316C107.184,51.912,106.568,52.793,106.568,52.796
					L106.568,52.796z M146.349,36.87c0,0-12.545,3.644-17.581,5.068c-5.036,1.424-13.396,3.798-14.685,4.158
					c0,0-0.362-0.512-4.295-1.03c0,0,5.464,1.322,5.326,3.027l0.274-1.226c0,0,15.189-4.838,19.705-6.064
					c4.516-1.226,9.1-2.521,10.81-3.134c1.711-0.613,4.862-2.203,6.262-1.033C152.172,36.642,150.861,34.81,146.349,36.87
					L146.349,36.87z M115.316,54.363v-3.609c0,2.387-0.595,3.85-0.595,3.85L115.316,54.363z M78.744,65.582
					c-2.622-6.55-6.983-11.088-6.983-11.088c-0.665,1.487,1.628,5.053,1.628,5.047c2.8,4.969,5.348,6.044,5.348,6.041H78.744z
					 M78.744,68.262c0,0-7.002-5.246-8.507-12.264c0,0-0.958-3.473,1.402-6.029c0,0-3.182,1.804-1.334,7.8
					c0,0,1.918,5.921,7.189,10.22c0,0,4.167,3.539,9.783,4.497c0,0,7.727,1.515,11.506-2.368c-0.004-0.004-7.765,6.041-20.046-1.856
					H78.744z M54.637,45.028c0,0-2.053-0.749,0,0.204c0.136,0.069,0.262,0.124,0.386,0.193c-0.24-0.233-0.392-0.399-0.392-0.397
					H54.637z M55.028,45.422c0.52,0.496,1.476,1.322,2.415,1.652c-0.001,0.005-0.659-0.78-2.411-1.652H55.028z M33.769,48.367
					c0,0-1.71-5.791,1.232-7.29c0,0-4.31-0.409-0.342,10.836c0,0,3.353,7.49,7.934,10.765C42.596,62.679,36.169,56.814,33.769,48.367
					L33.769,48.367z M30.417,43.053c-0.137,1.501,0.552,0.95,0.552,0.954c0.132-1.362-0.553-0.949-0.553-0.954H30.417z
					 M30.006,40.259c0,0-0.274,1.294,0.69,1.294c-0.006,0.004,0.506-1.153-0.695-1.294H30.006z"/>
			</defs>
			<clipPath id="SVGID_14_">
				<use xlink:href="#SVGID_13_"  overflow="visible"/>
			</clipPath>
			<g clip-path="url(#SVGID_14_)">
				<defs>
					<rect id="SVGID_15_" x="28.804" y="1.107" width="127" height="73"/>
				</defs>
				<clipPath id="SVGID_16_">
					<use xlink:href="#SVGID_15_"  overflow="visible"/>
				</clipPath>
				<rect x="24.97" y="30.891" clip-path="url(#SVGID_16_)" fill="#E1EDAE" width="132.196" height="46.886"/>
			</g>
		</g>
		<g>
			<defs>
				<path id="SVGID_17_" d="M155.645,44.155c-0.596-1.623-1.594-2.465-2.191-5.143c-0.028-0.125-0.056-0.243-0.084-0.355
					c-0.576-2.296-1.198-2.021-1.198-2.021c-1.606-0.829-6.604,1.578-6.604,1.583c-3.419,1.681-5.37,5.932-5.37,5.932
					c0.553-0.261,9.273-5.08,9.273-5.08c4.263-2.33,5.671,9.446,5.671,9.446c0.672-1.219,0.508-4.359,0.508-4.363H155.645z
					 M73.795,46c0,0,7.731-1.516,17.995-1.448c0,0,14.751,0.097,20.849,1.446c0,0-2.942-1.769-15.32-2.017
					c0.006,0-15.215-0.482-23.522,2.019H73.795z M76.669,65.264c0,0,1.339,1.666,2.525,2.175c0.007,0.004-0.801-2.447-2.526-2.175
					H76.669z M71.64,61.926c1.95,4.833,9.273,9.129,9.273,9.129c-5.407-3.611-9.267-9.133-9.267-9.129H71.64z M60.59,57.565
					c-0.889,4.292-4.08,8.492-4.08,8.496c1.355-0.609,3.384-3.015,3.384-3.015c2.518-2.47,3.289-8.029,3.289-8.029
					c-2.881-0.379-2.59,2.554-2.59,2.548H60.59z M66.679,48.503c0,0-3.721-0.034-6.833-1.771c0,0-3.348-2.454-6.633-3.911
					c0,0,5.326,2.892,5.602,4.252c0,0-0.821,1.019,0.621,1.431c0,0,6.913,0.812,8.072,0.886c0.148,0.014,0.262,0.014,0.345,0.028
					c0.624-0.44,1.981-1.375,2.937-1.89c-0.015,0.007-2.609,1.383-4.113,0.977H66.679z M67.839,49.421
					c-0.211,0.148-0.338,0.241-0.338,0.234s0.885-0.153,0.336-0.234H67.839z M35.001,41.077c0,0-2.326,1.594-0.684,7.154
					c0,0,1.49,6.279,4.471,9.212c0,0-3.517-5.8-3.654-9.41c0,0,0.205-1.022,0.821-2.316c0,0,0.839-1.101,0.727-2.39
					c0,0,2.031-0.417,5.578-1.909c0.004-0.01-4.725-1.36-7.263-0.339H35.001z"/>
			</defs>
			<clipPath id="SVGID_18_">
				<use xlink:href="#SVGID_17_"  overflow="visible"/>
			</clipPath>
			<g clip-path="url(#SVGID_18_)">
				<defs>
					<rect id="SVGID_19_" x="28.804" y="1.107" width="127" height="73"/>
				</defs>
				<clipPath id="SVGID_20_">
					<use xlink:href="#SVGID_19_"  overflow="visible"/>
				</clipPath>
				<rect x="28.73" y="31.463" clip-path="url(#SVGID_20_)" fill="#E1EDAE" width="131.937" height="44.591"/>
			</g>
		</g>
		<g>
			<defs>
				<path id="SVGID_21_" d="M57.255,61.978c-1.831,5.38-9.587,2.69-9.587,2.69c-6.665-2.231-9.5-7.985-10.982-11.196
					c-0.048-0.104-0.094-0.208-0.139-0.311c-1.337-3.089-1.256-5.852-1.256-5.852c1.22-2.43,1.395-3.992,1.395-3.992
					c1.046,0.179,5.578-1.91,5.578-1.91c8.106,2.079,12.115,5.811,12.115,5.815C62.329,54.451,57.342,61.847,57.255,61.978"/>
			</defs>
			<clipPath id="SVGID_22_">
				<use xlink:href="#SVGID_21_"  overflow="visible"/>
			</clipPath>
			<g clip-path="url(#SVGID_22_)">
				<defs>
					<rect id="SVGID_23_" x="28.804" y="1.107" width="127" height="73"/>
				</defs>
				<clipPath id="SVGID_24_">
					<use xlink:href="#SVGID_23_"  overflow="visible"/>
				</clipPath>
				<rect x="30.29" y="36.407" opacity="0.5" clip-path="url(#SVGID_24_)" fill="#FFFFFF" width="33.588" height="33.934"/>
			</g>
		</g>
		<g>
			<defs>
				<path id="SVGID_25_" d="M104.844,60.245l0.001-0.003c0,0-2.092,15.623-18.914,10.849c0,0-4.445,0.087-7.67-6.423
					c-0.829-1.673-1.26-2.502-1.444-2.812"/>
			</defs>
			<clipPath id="SVGID_26_">
				<use xlink:href="#SVGID_25_"  overflow="visible"/>
			</clipPath>
			<g clip-path="url(#SVGID_26_)">
				<defs>
					<rect id="SVGID_27_" x="28.804" y="1.107" width="127" height="73"/>
				</defs>
				<clipPath id="SVGID_28_">
					<use xlink:href="#SVGID_27_"  overflow="visible"/>
				</clipPath>
				<rect x="71.817" y="55.242" opacity="0.5" clip-path="url(#SVGID_28_)" fill="#FFFFFF" width="38.027" height="21.756"/>
			</g>
		</g>
		<g>
			<defs>
				<path id="SVGID_29_" d="M76.817,61.856c-0.787-1.705-2.068-4.013-3.96-6.128c-0.491-0.549-0.847-0.951-1.096-1.238
					c-0.679-0.703-1.371-1.656-1.083-2.417c0,0,0.285-2.161,3.138-3.462c0,0,8.019-3.559,22.226-0.521
					c0.001,0.007,11.852,2.43,8.802,12.154"/>
			</defs>
			<clipPath id="SVGID_30_">
				<use xlink:href="#SVGID_29_"  overflow="visible"/>
			</clipPath>
			<g clip-path="url(#SVGID_30_)">
				<defs>
					<rect id="SVGID_31_" x="28.804" y="1.107" width="127" height="73"/>
				</defs>
				<clipPath id="SVGID_32_">
					<use xlink:href="#SVGID_31_"  overflow="visible"/>
				</clipPath>
				<rect x="65.61" y="41.864" opacity="0.5" clip-path="url(#SVGID_32_)" fill="#FFFFFF" width="44.735" height="24.993"/>
			</g>
		</g>
	</g>
</svg>